# xmcd CD database file
#
# Track frame offsets:
#	150
#	21838
#	39183
#	61884
#	79710
#	97023
#	118116
#	140129
#	159509
#	190167
#	212582
#	231185
#	245130
#	264290
#	288358
#	301368
#	326201
#
# Disc length: 4546 seconds
#
# Revision: 0
# Processed by: cddbd v1.5.1PL2 Copyright (c) Steve Scherf et al.
# Submitted via: CDex 1.51
#
DISCID=f211c011
DTITLE=BB King - BB King and Friends
DYEAR=1900
DGENRE=Blues
TTITLE0=Early in the morning. feat Van Morrison
TTITLE1=Tired of your jive - feat. Billy Gibbons
TTITLE2=The thrill is gone - feat Eric Clapton
TTITLE3=Need your love so bad -feat Sheryl Crow
TTITLE4=Aint nobody home - feat Darryl Hall and John Oats
TTITLE5=Hummigbird - feat John Mayer
TTITLE6=All over again - feat Mark Knopfler
TTITLE7=Drivin' Wheel - feat Gleann Frey
TTITLE8=Must be a better world somewhere- feat Gloria Estefan
TTITLE9=Never make your move too soon - feat Roger Daltrey
TTITLE10=Funny how time slips away - feat Bobby Bland
TTITLE11=Rock this house - feat Elton John
TTITLE12=When love comes to town - feat U2
TTITLE13=Playing with my friends - feat Robert Cray
TTITLE14=Since I Baby - feat Gray Moore
TTITLE15=Let the good times roll live - with bobby bland
TTITLE16=3 O'clock Blues live - with bobby bland
EXTD=
EXTT0=
EXTT1=
EXTT2=
EXTT3=
EXTT4=
EXTT5=
EXTT6=
EXTT7=
EXTT8=
EXTT9=
EXTT10=
EXTT11=
EXTT12=
EXTT13=
EXTT14=
EXTT15=
EXTT16=
PLAYORDER=
